<svg width="83" height="21" viewBox="0 0 83 21" fill="none" xmlns="http://www.w3.org/2000/svg">
<g clip-path="url(#clip0_17_768)">
<path d="M25.379 15.3604V5.46777H31.4437V7.18574H27.0598V9.19004H30.5333V10.908H27.0598V13.6281H31.4437V15.3461H25.379V15.3604Z" fill="white"/>
<path d="M36.6819 8.08767C37.3542 8.08767 37.9705 8.25947 38.5167 8.58875C39.063 8.91802 39.5111 9.37615 39.8333 9.93449C40.1554 10.4928 40.3235 11.1227 40.3235 11.8099C40.3235 12.3253 40.2255 12.8121 40.0434 13.2559C39.8613 13.6997 39.5952 14.1006 39.259 14.4442C38.9229 14.7877 38.5307 15.0598 38.0965 15.2459C37.6623 15.432 37.1861 15.5322 36.6819 15.5322C36.2477 15.5322 35.8696 15.432 35.5334 15.2316C35.1973 15.0311 34.9172 14.7734 34.6931 14.4442V15.3461H33.0123V5.46777H34.6931V9.17572C34.9172 8.86076 35.1973 8.58875 35.5334 8.38832C35.8696 8.18789 36.2477 8.08767 36.6819 8.08767ZM36.6679 13.8715C37.0321 13.8715 37.3542 13.7856 37.6483 13.5995C37.9425 13.4134 38.1806 13.17 38.3486 12.855C38.5307 12.5401 38.6148 12.1965 38.6148 11.8099C38.6148 11.4377 38.5307 11.0941 38.3486 10.7792C38.1666 10.4642 37.9425 10.2208 37.6483 10.0347C37.3542 9.84859 37.0321 9.76269 36.6679 9.76269C36.3178 9.76269 36.0096 9.86291 35.7295 10.049C35.4494 10.2351 35.2393 10.4785 35.0852 10.7935C34.9312 11.1084 34.8471 11.452 34.8471 11.8243C34.8471 12.2108 34.9312 12.5544 35.0852 12.8693C35.2393 13.1843 35.4634 13.4277 35.7295 13.6138C35.9956 13.7856 36.3178 13.8715 36.6679 13.8715Z" fill="white"/>
<path d="M46.6542 8.2881H48.335V15.3604H46.6542L46.5842 14.4871C46.3881 14.8021 46.15 15.0598 45.8279 15.2602C45.5198 15.4606 45.1556 15.5465 44.7214 15.5465C44.2032 15.5465 43.727 15.4463 43.2788 15.2459C42.8306 15.0454 42.4384 14.7734 42.1023 14.4298C41.7661 14.0862 41.5 13.6854 41.3039 13.2273C41.1078 12.7691 41.0238 12.2824 41.0238 11.7527C41.0238 11.2516 41.1078 10.7792 41.2899 10.3353C41.472 9.89154 41.7241 9.505 42.0603 9.17572C42.3824 8.84644 42.7606 8.57443 43.1947 8.38832C43.6289 8.2022 44.0911 8.10199 44.5813 8.10199C45.0435 8.10199 45.4497 8.2022 45.8139 8.41695C46.178 8.61738 46.4862 8.88939 46.7383 9.20435L46.6542 8.2881ZM44.6794 13.8858C45.0435 13.8858 45.3517 13.7999 45.6318 13.6138C45.9119 13.4277 46.122 13.1843 46.2761 12.8693C46.4301 12.5544 46.5142 12.2108 46.5142 11.8386C46.5142 11.452 46.4301 11.1084 46.2761 10.7935C46.122 10.4785 45.8979 10.2351 45.6178 10.049C45.3377 9.86291 45.0155 9.77701 44.6654 9.77701C44.3152 9.77701 43.9931 9.87722 43.699 10.0633C43.4048 10.2494 43.1667 10.4928 42.9987 10.8078C42.8306 11.1227 42.7325 11.4663 42.7325 11.8529C42.7325 12.2394 42.8166 12.583 42.9987 12.898C43.1807 13.2129 43.4048 13.4563 43.699 13.6424C43.9931 13.8285 44.3292 13.8858 44.6794 13.8858Z" fill="white"/>
<path d="M56.0523 10.8937V15.3604H54.3716V11.3518C54.3716 11.0798 54.3015 10.8221 54.1755 10.593C54.0354 10.364 53.8674 10.1779 53.6433 10.049C53.4192 9.92017 53.1671 9.84859 52.9009 9.84859C52.6348 9.84859 52.3827 9.92017 52.1586 10.049C51.9345 10.1779 51.7524 10.364 51.6264 10.593C51.5003 10.8221 51.4303 11.0798 51.4303 11.3518V15.3604H49.7496V8.28811H51.4303V8.91803C51.6684 8.66033 51.9485 8.4599 52.2707 8.31674C52.5928 8.17358 52.957 8.08768 53.3351 8.08768C53.8393 8.08768 54.3015 8.21652 54.7077 8.4599C55.1279 8.7176 55.45 9.04688 55.7022 9.47637C55.9263 9.90586 56.0523 10.3783 56.0523 10.8937Z" fill="white"/>
<path d="M61.1365 10.0204H59.806V15.3604H58.1252V10.0204H57.1028V8.30242H58.1252V6.06906H59.806V8.2881H61.1505V10.0204H61.1365Z" fill="white"/>
<path d="M65.2823 15.5465C64.6521 15.5465 64.0638 15.3747 63.5456 15.0454C63.0274 14.7162 62.6072 14.258 62.2991 13.6997C61.9909 13.1414 61.8369 12.5114 61.8369 11.8243C61.8369 11.3089 61.9209 10.8221 62.103 10.3783C62.285 9.93449 62.5372 9.53363 62.8453 9.19004C63.1674 8.84644 63.5316 8.57443 63.9518 8.38832C64.372 8.2022 64.8201 8.10199 65.2964 8.10199C65.8426 8.10199 66.3328 8.21652 66.781 8.44558C67.2292 8.67465 67.6074 9.00392 67.9295 9.40478C68.2376 9.80564 68.4757 10.2781 68.6158 10.7935C68.7559 11.3089 68.7979 11.8529 68.7138 12.4255H63.6576C63.7277 12.6832 63.8257 12.9266 63.9798 13.1414C64.1338 13.3561 64.3159 13.5136 64.54 13.6424C64.7641 13.7713 65.0162 13.8285 65.3104 13.8429C65.6045 13.8429 65.8706 13.7713 66.1087 13.6281C66.3468 13.485 66.5569 13.2845 66.711 13.0268L68.4337 13.442C68.1536 14.0719 67.7334 14.5873 67.1732 14.9739C66.5849 15.3461 65.9686 15.5465 65.2823 15.5465ZM63.5736 11.1227H66.9771C66.9211 10.8364 66.823 10.5787 66.6549 10.3497C66.4869 10.1206 66.2908 9.93449 66.0527 9.80564C65.8146 9.66248 65.5485 9.60521 65.2823 9.60521C65.0022 9.60521 64.7501 9.67679 64.512 9.80564C64.2739 9.93449 64.0778 10.1206 63.9098 10.3497C63.7417 10.5787 63.6296 10.8364 63.5736 11.1227Z" fill="white"/>
<path d="M74.1202 13.2273L75.6468 14.0719C75.3247 14.5157 74.9325 14.8736 74.4563 15.1457C73.9801 15.4177 73.4479 15.5465 72.8876 15.5465C72.2574 15.5465 71.6691 15.3747 71.1509 15.0454C70.6327 14.7162 70.2125 14.258 69.9043 13.6997C69.5962 13.1414 69.4421 12.5114 69.4421 11.8243C69.4421 11.3089 69.5262 10.8221 69.7083 10.3783C69.8903 9.93449 70.1424 9.53363 70.4506 9.19004C70.7727 8.84644 71.1369 8.57443 71.5571 8.38832C71.9772 8.2022 72.4254 8.10199 72.9016 8.10199C73.4619 8.10199 73.9941 8.23084 74.4703 8.50285C74.9465 8.77486 75.3527 9.13277 75.6608 9.59089L74.1342 10.4212C73.9661 10.2351 73.784 10.092 73.5599 9.97744C73.3358 9.87722 73.1117 9.81996 72.8876 9.81996C72.5515 9.81996 72.2574 9.92017 71.9912 10.1063C71.7251 10.2924 71.515 10.5358 71.361 10.8364C71.2069 11.1371 71.1229 11.4663 71.1229 11.8243C71.1229 12.1822 71.2069 12.5114 71.361 12.8121C71.515 13.1127 71.7251 13.3561 71.9912 13.5422C72.2574 13.7283 72.5515 13.8142 72.8876 13.8142C73.1257 13.8142 73.3498 13.757 73.5739 13.6568C73.77 13.5565 73.9661 13.4134 74.1202 13.2273Z" fill="white"/>
<path d="M83 10.8937V15.3604H81.3193V11.3518C81.3193 11.0798 81.2492 10.8221 81.1232 10.593C80.9831 10.364 80.8151 10.1779 80.591 10.049C80.3669 9.92017 80.1147 9.84859 79.8486 9.84859C79.5825 9.84859 79.3304 9.92017 79.1063 10.049C78.8822 10.1779 78.7001 10.364 78.5741 10.593C78.448 10.8221 78.378 11.0798 78.378 11.3518V15.3604H76.6973V5.46777H78.378V8.91802C78.6161 8.66033 78.8962 8.4599 79.2184 8.31674C79.5405 8.17357 79.9047 8.08767 80.2828 8.08767C80.787 8.08767 81.2492 8.21652 81.6554 8.4599C82.0756 8.71759 82.3977 9.04687 82.6498 9.47636C82.8739 9.90586 83 10.3783 83 10.8937Z" fill="white"/>
<path d="M15.2107 13.3418C15.1547 13.3991 15.0986 13.4563 15.0566 13.5136C15.0006 13.5709 14.7485 13.8572 14.6925 13.9001C14.3843 14.2437 13.9921 14.5301 13.572 14.7305C12.9837 15.0168 12.3254 15.1314 11.6671 15.0741C10.5467 15.0168 9.44017 14.9452 8.31969 14.8593C7.21321 14.7734 6.06471 14.6589 4.97223 14.5157C6.06471 14.3583 7.22721 14.2581 8.31969 14.1722C9.44017 14.0863 10.5467 14.0147 11.6671 13.9574C12.1293 13.9574 12.6055 13.8572 13.0117 13.6138C13.4319 13.3848 13.754 12.9839 14.0482 12.6117C14.5524 12.0104 15.2387 11.1943 15.8409 10.5072C15.1687 9.73407 14.3283 8.73193 13.7821 8.07337C13.3619 7.52935 12.7316 7.15712 12.0593 7.08554C10.2525 6.98533 8.44574 6.88511 6.65296 6.699C6.17676 6.65605 5.44844 6.57015 4.97223 6.49857C6.06471 6.34109 7.22721 6.24087 8.31969 6.14066C9.44017 6.05476 10.5467 5.98318 11.6671 5.92591C12.7316 5.8257 13.8381 6.22656 14.5944 6.99964C14.7765 7.20007 14.9866 7.41482 15.1967 7.6582C15.7709 7.38618 16.3172 6.99964 16.7654 6.48425L21.9896 0.5H9.01999C7.53535 0.5 6.13474 1.14424 5.16832 2.27523L1.49873 6.48425C-0.490136 8.77487 -0.490136 12.2251 1.49873 14.5157L5.16832 18.7391C6.14875 19.8701 7.54935 20.5143 9.01999 20.5143H21.9896L16.7794 14.5301C16.3312 14.0004 15.7989 13.5995 15.2107 13.3418Z" fill="#1E52FC"/>
</g>
<defs>
<clipPath id="clip0_17_768">
<rect width="83" height="20" fill="white" transform="translate(0 0.5)"/>
</clipPath>
</defs>
</svg>
