<svg width="83" height="20" viewBox="0 0 83 20" fill="none" xmlns="http://www.w3.org/2000/svg">
<g clip-path="url(#clip0_5_1729)">
<path d="M25.379 14.8604V4.96777H31.4437V6.68574H27.0598V8.69004H30.5333V10.408H27.0598V13.1281H31.4437V14.8461H25.379V14.8604Z" fill="white"/>
<path d="M36.6819 7.58767C37.3542 7.58767 37.9705 7.75947 38.5167 8.08875C39.063 8.41802 39.5111 8.87615 39.8333 9.43449C40.1554 9.99283 40.3235 10.6227 40.3235 11.3099C40.3235 11.8253 40.2255 12.3121 40.0434 12.7559C39.8613 13.1997 39.5952 13.6006 39.259 13.9442C38.9229 14.2877 38.5307 14.5598 38.0965 14.7459C37.6623 14.932 37.1861 15.0322 36.6819 15.0322C36.2477 15.0322 35.8696 14.932 35.5334 14.7316C35.1973 14.5311 34.9172 14.2734 34.6931 13.9442V14.8461H33.0123V4.96777H34.6931V8.67572C34.9172 8.36076 35.1973 8.08875 35.5334 7.88832C35.8696 7.68789 36.2477 7.58767 36.6819 7.58767ZM36.6679 13.3715C37.0321 13.3715 37.3542 13.2856 37.6483 13.0995C37.9425 12.9134 38.1806 12.67 38.3486 12.355C38.5307 12.0401 38.6148 11.6965 38.6148 11.3099C38.6148 10.9377 38.5307 10.5941 38.3486 10.2792C38.1666 9.9642 37.9425 9.72082 37.6483 9.5347C37.3542 9.34859 37.0321 9.26269 36.6679 9.26269C36.3178 9.26269 36.0096 9.36291 35.7295 9.54902C35.4494 9.73513 35.2393 9.97851 35.0852 10.2935C34.9312 10.6084 34.8471 10.952 34.8471 11.3243C34.8471 11.7108 34.9312 12.0544 35.0852 12.3693C35.2393 12.6843 35.4634 12.9277 35.7295 13.1138C35.9956 13.2856 36.3178 13.3715 36.6679 13.3715Z" fill="white"/>
<path d="M46.6542 7.7881H48.335V14.8604H46.6542L46.5842 13.9871C46.3881 14.3021 46.15 14.5598 45.8279 14.7602C45.5198 14.9606 45.1556 15.0465 44.7214 15.0465C44.2032 15.0465 43.727 14.9463 43.2788 14.7459C42.8306 14.5454 42.4384 14.2734 42.1023 13.9298C41.7661 13.5862 41.5 13.1854 41.3039 12.7273C41.1078 12.2691 41.0238 11.7824 41.0238 11.2527C41.0238 10.7516 41.1078 10.2792 41.2899 9.83535C41.472 9.39154 41.7241 9.005 42.0603 8.67572C42.3824 8.34644 42.7606 8.07443 43.1947 7.88832C43.6289 7.7022 44.0911 7.60199 44.5813 7.60199C45.0435 7.60199 45.4497 7.7022 45.8139 7.91695C46.178 8.11738 46.4862 8.38939 46.7383 8.70435L46.6542 7.7881ZM44.6794 13.3858C45.0435 13.3858 45.3517 13.2999 45.6318 13.1138C45.9119 12.9277 46.122 12.6843 46.2761 12.3693C46.4301 12.0544 46.5142 11.7108 46.5142 11.3386C46.5142 10.952 46.4301 10.6084 46.2761 10.2935C46.122 9.97851 45.8979 9.73513 45.6178 9.54902C45.3377 9.36291 45.0155 9.27701 44.6654 9.27701C44.3152 9.27701 43.9931 9.37722 43.699 9.56334C43.4048 9.74945 43.1667 9.99283 42.9987 10.3078C42.8306 10.6227 42.7325 10.9663 42.7325 11.3529C42.7325 11.7394 42.8166 12.083 42.9987 12.398C43.1807 12.7129 43.4048 12.9563 43.699 13.1424C43.9931 13.3285 44.3292 13.3858 44.6794 13.3858Z" fill="white"/>
<path d="M56.0523 10.3937V14.8604H54.3716V10.8518C54.3716 10.5798 54.3015 10.3221 54.1755 10.093C54.0354 9.86398 53.8674 9.67787 53.6433 9.54902C53.4192 9.42017 53.1671 9.34859 52.9009 9.34859C52.6348 9.34859 52.3827 9.42017 52.1586 9.54902C51.9345 9.67787 51.7524 9.86398 51.6264 10.093C51.5003 10.3221 51.4303 10.5798 51.4303 10.8518V14.8604H49.7496V7.78811H51.4303V8.41803C51.6684 8.16033 51.9485 7.9599 52.2707 7.81674C52.5928 7.67358 52.957 7.58768 53.3351 7.58768C53.8393 7.58768 54.3015 7.71652 54.7077 7.9599C55.1279 8.2176 55.45 8.54688 55.7022 8.97637C55.9263 9.40586 56.0523 9.8783 56.0523 10.3937Z" fill="white"/>
<path d="M61.1365 9.52039H59.806V14.8604H58.1252V9.52039H57.1028V7.80242H58.1252V5.56906H59.806V7.7881H61.1505V9.52039H61.1365Z" fill="white"/>
<path d="M65.2823 15.0465C64.6521 15.0465 64.0638 14.8747 63.5456 14.5454C63.0274 14.2162 62.6072 13.758 62.2991 13.1997C61.9909 12.6414 61.8369 12.0114 61.8369 11.3243C61.8369 10.8089 61.9209 10.3221 62.103 9.8783C62.285 9.43449 62.5372 9.03363 62.8453 8.69004C63.1674 8.34644 63.5316 8.07443 63.9518 7.88832C64.372 7.7022 64.8201 7.60199 65.2964 7.60199C65.8426 7.60199 66.3328 7.71652 66.781 7.94558C67.2292 8.17465 67.6074 8.50392 67.9295 8.90478C68.2376 9.30564 68.4757 9.77808 68.6158 10.2935C68.7559 10.8089 68.7979 11.3529 68.7138 11.9255H63.6576C63.7277 12.1832 63.8257 12.4266 63.9798 12.6414C64.1338 12.8561 64.3159 13.0136 64.54 13.1424C64.7641 13.2713 65.0162 13.3285 65.3104 13.3429C65.6045 13.3429 65.8706 13.2713 66.1087 13.1281C66.3468 12.985 66.5569 12.7845 66.711 12.5268L68.4337 12.942C68.1536 13.5719 67.7334 14.0873 67.1732 14.4739C66.5849 14.8461 65.9686 15.0465 65.2823 15.0465ZM63.5736 10.6227H66.9771C66.9211 10.3364 66.823 10.0787 66.6549 9.84966C66.4869 9.6206 66.2908 9.43449 66.0527 9.30564C65.8146 9.16248 65.5485 9.10521 65.2823 9.10521C65.0022 9.10521 64.7501 9.17679 64.512 9.30564C64.2739 9.43449 64.0778 9.6206 63.9098 9.84966C63.7417 10.0787 63.6296 10.3364 63.5736 10.6227Z" fill="white"/>
<path d="M74.1202 12.7273L75.6468 13.5719C75.3247 14.0157 74.9325 14.3736 74.4563 14.6457C73.9801 14.9177 73.4479 15.0465 72.8876 15.0465C72.2574 15.0465 71.6691 14.8747 71.1509 14.5454C70.6327 14.2162 70.2125 13.758 69.9043 13.1997C69.5962 12.6414 69.4421 12.0114 69.4421 11.3243C69.4421 10.8089 69.5262 10.3221 69.7083 9.8783C69.8903 9.43449 70.1424 9.03363 70.4506 8.69004C70.7727 8.34644 71.1369 8.07443 71.5571 7.88832C71.9772 7.7022 72.4254 7.60199 72.9016 7.60199C73.4619 7.60199 73.9941 7.73084 74.4703 8.00285C74.9465 8.27486 75.3527 8.63277 75.6608 9.09089L74.1342 9.92125C73.9661 9.73513 73.784 9.59197 73.5599 9.47744C73.3358 9.37722 73.1117 9.31996 72.8876 9.31996C72.5515 9.31996 72.2574 9.42017 71.9912 9.60628C71.7251 9.7924 71.515 10.0358 71.361 10.3364C71.2069 10.6371 71.1229 10.9663 71.1229 11.3243C71.1229 11.6822 71.2069 12.0114 71.361 12.3121C71.515 12.6127 71.7251 12.8561 71.9912 13.0422C72.2574 13.2283 72.5515 13.3142 72.8876 13.3142C73.1257 13.3142 73.3498 13.257 73.5739 13.1568C73.77 13.0565 73.9661 12.9134 74.1202 12.7273Z" fill="white"/>
<path d="M83 10.3937V14.8604H81.3193V10.8518C81.3193 10.5798 81.2492 10.3221 81.1232 10.093C80.9831 9.86398 80.8151 9.67787 80.591 9.54902C80.3669 9.42017 80.1147 9.34859 79.8486 9.34859C79.5825 9.34859 79.3304 9.42017 79.1063 9.54902C78.8822 9.67787 78.7001 9.86398 78.5741 10.093C78.448 10.3221 78.378 10.5798 78.378 10.8518V14.8604H76.6973V4.96777H78.378V8.41802C78.6161 8.16033 78.8962 7.9599 79.2184 7.81674C79.5405 7.67357 79.9047 7.58767 80.2828 7.58767C80.787 7.58767 81.2492 7.71652 81.6554 7.9599C82.0756 8.21759 82.3977 8.54687 82.6498 8.97636C82.8739 9.40586 83 9.8783 83 10.3937Z" fill="white"/>
<path d="M15.2107 12.8418C15.1547 12.8991 15.0986 12.9563 15.0566 13.0136C15.0006 13.0709 14.7485 13.3572 14.6925 13.4001C14.3843 13.7437 13.9921 14.0301 13.572 14.2305C12.9837 14.5168 12.3254 14.6314 11.6671 14.5741C10.5467 14.5168 9.44017 14.4452 8.31969 14.3593C7.21321 14.2734 6.06471 14.1589 4.97223 14.0157C6.06471 13.8583 7.22721 13.7581 8.31969 13.6722C9.44017 13.5863 10.5467 13.5147 11.6671 13.4574C12.1293 13.4574 12.6055 13.3572 13.0117 13.1138C13.4319 12.8848 13.754 12.4839 14.0482 12.1117C14.5524 11.5104 15.2387 10.6943 15.8409 10.0072C15.1687 9.23407 14.3283 8.23193 13.7821 7.57337C13.3619 7.02935 12.7316 6.65712 12.0593 6.58554C10.2525 6.48533 8.44574 6.38511 6.65296 6.199C6.17676 6.15605 5.44844 6.07015 4.97223 5.99857C6.06471 5.84109 7.22721 5.74087 8.31969 5.64066C9.44017 5.55476 10.5467 5.48318 11.6671 5.42591C12.7316 5.3257 13.8381 5.72656 14.5944 6.49964C14.7765 6.70007 14.9866 6.91482 15.1967 7.1582C15.7709 6.88618 16.3172 6.49964 16.7654 5.98425L21.9896 0H9.01999C7.53535 0 6.13474 0.644238 5.16832 1.77523L1.49873 5.98425C-0.490136 8.27487 -0.490136 11.7251 1.49873 14.0157L5.16832 18.2391C6.14875 19.3701 7.54935 20.0143 9.01999 20.0143H21.9896L16.7794 14.0301C16.3312 13.5004 15.7989 13.0995 15.2107 12.8418Z" fill="#1E52FC"/>
</g>
<defs>
<clipPath id="clip0_5_1729">
<rect width="83" height="20" fill="white"/>
</clipPath>
</defs>
</svg>
